<svg xmlns="http://www.w3.org/2000/svg" viewBox="0 0 175.66 135.03"><g id="Layer_2" data-name="Layer 2"><g id="Layer_1-2" data-name="Layer 1"><path d="M87.49,2.24c.47-.54.67-1,.87-1C106,1.56,123.69-1,141.12,3.05c13.15,3.06,23.16,10,26.53,24.05a31.45,31.45,0,0,1-12.81,32.77c-2,1.33-4,2.69-6.18,4.2,5.52,3.1,10.68,5.42,15.2,8.64,16.36,11.66,15.35,37.77-.81,49.85-13.38,10-28.24,10.4-43.65,10.08-8.3-.17-16.61,0-24.92-.06a15.71,15.71,0,0,1-5.8-1.17c6.3-5.18,11-11.92,20.84-11.51a167.16,167.16,0,0,0,32.79-1.6c16.36-2.58,24.7-18.74,17.21-32.64a22.28,22.28,0,0,0-10.37-9.44,56.77,56.77,0,0,0-18.86-3.79c-13.64-.54-27.32-.1-41-.25-4,0-5.8,1.1-5.51,5.42.34,5.15-.36,10.38.22,15.48.79,6.94-2.9,10.88-8,14.21-1.37.9-2.87,1.6-5.31,2.95V23.17c7.83,3,14.54,7.92,13.3,17.09-.69,5.08-.06,10.32-.13,15.49,0,2.77.82,4.59,3.9,4.52,15.31-.35,30.69.07,45.9-1.32a23.1,23.1,0,0,0,20.06-30.1c-2.64-8.38-9-13-17.14-14.22-9.16-1.33-24.68-1.31-34-1.27"/><path d="M51.16,135c-18.66-1-35.33-6.87-48.92-20.25-1.75-1.72-3.74-3.38-.55-5.49,2.73-1.81,3.94-7.6,9-3.52,8.58,6.93,17.53,12.86,28.73,15.11,24.5,4.93,49.41-8.28,58.55-31.54.37-.93.73-1.86,1-2.81,3-8.73,3-8.61,12.1-8.27,3.46.13,4.3,1.37,3.53,4.64-4.62,19.7-15.3,34.89-33.54,44C71.78,131.55,62.06,135.53,51.16,135Z"/><path d="M2.5,21.29c-.17-1.12.9-2.86,2-3.67C16.4,8.67,21.39,5,31.7,2.57c20.36-4.85,40.11-3.36,57.75,9,14.59,10.27,21.21,24.6,27.2,43.21-4.3,0-11.48-.17-11.48-.17h0S94.91,29.89,86.62,22.75C74.65,12.46,59,11,43.5,13.09c-10.75,1.49-19.79,6.39-27.94,13.33"/></g></g></svg>